<svg width="900" height="900" viewBox="0 0 900 900" fill="none" xmlns="http://www.w3.org/2000/svg">
<path d="M480.178 573.778C487.955 573.778 494.241 560.869 494.241 544.852C494.241 528.919 487.955 515.897 480.178 515.897C472.402 515.897 466.116 528.919 466.116 544.852C466.116 560.869 472.416 573.778 480.178 573.778Z" fill="#FB0B0B"/>
<path d="M419.836 515.911C412.059 515.911 405.773 528.933 405.773 544.866C405.773 560.883 412.059 573.792 419.836 573.792C427.612 573.792 433.898 560.883 433.898 544.866C433.898 528.919 427.612 515.911 419.836 515.911Z" fill="#FB0B0B"/>
<path d="M339.37 425.756C314.1 443.588 293.358 460.364 293.358 460.364C293.358 460.364 314.367 445.781 339.37 425.756" fill="#FB0B0B"/>
<path d="M275.527 384.398C262.448 394.594 254.025 401.695 254.025 401.695C254.025 401.695 262.927 394.748 275.527 384.398Z" fill="#FB0B0B"/>
<path d="M871.875 463.612C871.875 410.358 835.763 365.695 786.698 352.209C785.714 347.751 785.025 343.589 783.928 339.019C780.356 323.958 773.677 296.269 756.675 284.962C730.716 224.212 681.23 179.845 609.975 151.58C626.077 143.086 636.483 138.811 636.483 138.811C590.977 122.836 551.475 113.47 517.275 109.209C535.261 95.6953 547.27 90.5484 547.27 90.5484C305.128 56.3906 170.03 169.411 133.636 294.286C123.553 307.659 118.87 327.248 116.058 339.033C114.975 343.561 114.286 347.709 113.316 352.139C64.2375 365.597 28.1391 410.344 28.1391 463.627C28.1391 513.591 59.8922 556.017 104.302 572.259L28.125 871.861H196.158C190.223 842.498 191.756 755.311 196.945 725.709C257.105 780.623 348.117 815.611 450 815.611C551.883 815.611 642.923 780.637 703.083 725.709C708.272 755.297 709.819 842.498 703.856 871.861H871.875L795.712 572.203C840.122 556.003 871.875 513.576 871.875 463.612ZM68.6109 463.612C68.6109 436.584 83.1094 413.325 104.611 400.12C97.2281 452.644 98.7188 496.294 109.533 530.297C85.2891 517.711 68.6109 492.75 68.6109 463.612ZM450 310.219C450 310.219 636.525 209.77 705.909 300.867C703.294 304.003 700.748 307.336 698.245 310.598C694.758 315.183 688.992 322.706 684.619 326.925C663.722 310.148 611.747 273.347 557.536 273.347C552.952 273.347 548.367 273.628 543.909 274.177C532.673 275.456 524.25 282.276 521.311 292.303C520.768 294.083 520.391 295.91 520.186 297.759C511.973 295.355 504.591 294.145 498.023 294.145C480.122 294.145 469.898 302.4 464.513 309.347C452.911 324.253 454.008 342.098 468.984 364.837C463.781 366.736 460.111 369.731 457.664 372.375C454.036 376.369 450.225 383.316 450.028 393.708C449.831 383.33 446.02 376.383 442.378 372.375C439.258 368.992 435.371 366.407 431.044 364.837C446.006 342.098 447.117 324.239 435.53 309.347C430.13 302.4 419.948 294.145 402.005 294.145C395.452 294.145 388.055 295.355 379.842 297.759C379.637 295.91 379.26 294.083 378.717 292.303C375.778 282.276 367.312 275.456 356.105 274.177C351.579 273.621 347.024 273.344 342.464 273.347C288.253 273.347 236.32 310.134 215.423 326.953C211.022 322.706 205.27 315.183 201.769 310.598C199.266 307.308 196.72 303.989 194.119 300.867C263.489 209.77 450 310.219 450 310.219ZM136.589 343.898C144.211 311.892 151.903 300.98 159.905 300.98C176.991 300.98 195.511 350.775 217.814 350.775C218.588 350.775 219.361 350.719 220.148 350.578C220.148 350.578 281.138 294.469 342.478 294.469C346.219 294.469 349.917 294.652 353.63 295.102C377.367 297.9 311.442 354.951 275.541 384.398C308.039 359.156 369.281 315.239 402.019 315.239C409.233 315.239 415.069 317.376 418.88 322.298C434.981 343.012 381.502 392.062 339.384 425.756C368.044 405.52 402.539 383.906 419.217 383.906C426.023 383.906 429.848 387.52 429.075 396.309C424.294 450.661 318.277 577.167 253.519 590.048C242.916 592.158 232.58 593.283 222.666 593.283C145.237 593.297 93.2766 525.881 136.589 343.898ZM450 795.966C336.178 795.966 243.928 726.651 243.928 641.095C243.928 631.237 245.278 621.619 247.669 612.295C250.987 611.789 254.264 611.423 257.639 610.762C332.114 595.969 443.981 462.923 450.028 398.559C456.033 462.923 567.886 595.941 642.375 610.791C645.75 611.437 649.027 611.789 652.345 612.295C654.736 621.619 656.086 631.237 656.086 641.095C656.072 726.651 563.822 795.966 450 795.966V795.966ZM677.362 593.297C667.448 593.297 657.098 592.172 646.495 590.062C581.737 577.181 475.706 450.675 470.967 396.323C470.194 387.534 474.019 383.92 480.825 383.92C497.503 383.92 531.998 405.52 560.672 425.77C518.569 392.076 465.061 343.012 481.162 322.312C485.002 317.391 490.838 315.253 498.023 315.253C530.761 315.253 592.017 359.17 624.473 384.412C588.6 354.937 522.689 297.928 546.384 295.116C550.097 294.666 553.823 294.483 557.536 294.483C618.891 294.483 679.894 350.592 679.894 350.592C680.695 350.733 681.455 350.789 682.228 350.789C704.503 350.789 723.009 300.994 740.095 300.994C748.111 300.994 755.803 311.892 763.411 343.912C806.752 525.881 754.762 593.297 677.362 593.297ZM795.417 400.12C816.891 413.311 831.403 436.584 831.403 463.612C831.403 492.75 814.725 517.725 790.509 530.269C801.309 496.294 802.8 452.63 795.417 400.12" fill="#FA0909"/>
<path d="M624.459 384.398C637.059 394.748 645.961 401.695 645.961 401.695C645.961 401.695 637.566 394.594 624.459 384.398" fill="#FB0B0B"/>
<path d="M560.658 425.756C585.675 445.781 606.656 460.364 606.656 460.364C606.656 460.364 585.928 443.588 560.658 425.756" fill="#FB0B0B"/>
<path d="M581.133 658.096C575.286 637.805 543.322 629.2 509.739 638.878C476.156 648.555 453.672 672.849 459.52 693.141C465.367 713.432 497.331 722.037 530.914 712.36C564.497 702.682 586.981 678.388 581.133 658.096Z" fill="#FB0B0B"/>
</svg>
