<svg width="24" height="24" viewBox="0 0 24 24" fill="none" xmlns="http://www.w3.org/2000/svg">
<path d="M12 0C8.73825 0 8.33175 0.01575 7.05525 0.06975C5.7735 0.13275 4.9065 0.3315 4.1415 0.6285C3.34085 0.930765 2.61575 1.40401 2.01675 2.01525C1.40381 2.61285 0.930301 3.33835 0.630003 4.14C0.333003 4.905 0.134253 5.772 0.071253 7.05375C0.013503 8.331 0.00150299 8.73675 0.00150299 11.9985C0.00150299 15.2603 0.017253 15.6667 0.071253 16.9432C0.134253 18.2212 0.333003 19.092 0.630003 19.857C0.932268 20.6577 1.40551 21.3828 2.01675 21.9818C2.61435 22.5947 3.33985 23.0682 4.1415 23.3685C4.9065 23.6618 5.77725 23.8642 7.05525 23.9272C8.3325 23.985 8.73825 23.997 12 23.997C15.2618 23.997 15.6683 23.9812 16.9448 23.9272C18.2228 23.8642 19.0935 23.661 19.8585 23.3685C20.6592 23.0662 21.3843 22.593 21.9833 21.9818C22.597 21.3848 23.0706 20.6591 23.37 19.857C23.6633 19.092 23.8658 18.2212 23.9288 16.9432C23.9865 15.666 23.9985 15.2603 23.9985 11.9985C23.9985 8.73675 23.9828 8.33025 23.9288 7.05375C23.8658 5.77575 23.6625 4.9005 23.37 4.14C23.0677 3.33935 22.5945 2.61425 21.9833 2.01525C21.3863 1.40152 20.6606 0.927885 19.8585 0.6285C19.0935 0.3315 18.2228 0.13275 16.9448 0.06975C15.6675 0.012 15.2618 0 12 0ZM12 2.16C15.2033 2.16 15.5858 2.17575 16.8518 2.22975C18.0195 2.2845 18.6555 2.4795 19.0778 2.6445C19.5998 2.83719 20.0722 3.14389 20.4608 3.54225C20.8584 3.92912 21.164 4.40051 21.3548 4.9215C21.5198 5.34375 21.7148 5.97975 21.7695 7.1475C21.8235 8.4135 21.8393 8.79675 21.8393 11.9992C21.8393 15.2017 21.8235 15.585 21.765 16.851C21.702 18.0188 21.507 18.6548 21.3428 19.077C21.1155 19.6403 20.862 20.034 20.4435 20.46C20.0537 20.8559 19.5815 21.1611 19.0605 21.354C18.6435 21.519 17.9985 21.714 16.8263 21.7687C15.5535 21.8227 15.1785 21.8385 11.967 21.8385C8.7555 21.8385 8.38125 21.8227 7.107 21.7642C5.93925 21.7012 5.295 21.5062 4.87275 21.342C4.30275 21.1147 3.912 20.8612 3.4935 20.4427C3.07125 20.0205 2.80275 19.6185 2.59575 19.0598C2.42775 18.6428 2.23575 17.9977 2.1735 16.8255C2.13075 15.5677 2.1105 15.1778 2.1105 11.9813C2.1105 8.78625 2.13075 8.3955 2.1735 7.122C2.23575 5.94975 2.42775 5.30625 2.59575 4.88775C2.80275 4.317 3.072 3.927 3.4935 3.50475C3.91125 3.087 4.30275 2.817 4.87275 2.6055C5.295 2.44125 5.9235 2.24625 7.09575 2.18775C8.3685 2.142 8.7435 2.1255 11.9505 2.1255L12 2.16ZM12 5.84025C11.191 5.83995 10.3899 5.99908 9.64242 6.30853C8.89495 6.61798 8.21579 7.0717 7.64374 7.64374C7.0717 8.21578 6.61799 8.89495 6.30853 9.64242C5.99908 10.3899 5.83996 11.191 5.84025 12C5.83996 12.809 5.99908 13.6101 6.30853 14.3576C6.61799 15.1051 7.0717 15.7842 7.64374 16.3563C8.21579 16.9283 8.89495 17.382 9.64242 17.6915C10.3899 18.0009 11.191 18.16 12 18.1597C12.809 18.16 13.6101 18.0009 14.3576 17.6915C15.1051 17.382 15.7842 16.9283 16.3563 16.3563C16.9283 15.7842 17.382 15.1051 17.6915 14.3576C18.0009 13.6101 18.16 12.809 18.1598 12C18.16 11.191 18.0009 10.3899 17.6915 9.64242C17.382 8.89495 16.9283 8.21578 16.3563 7.64374C15.7842 7.0717 15.1051 6.61798 14.3576 6.30853C13.6101 5.99908 12.809 5.83995 12 5.84025V5.84025ZM12 15.9998C9.789 15.9998 8.00025 14.211 8.00025 12C8.00025 9.789 9.789 8.00025 12 8.00025C14.211 8.00025 15.9998 9.789 15.9998 12C15.9998 14.211 14.211 15.9998 12 15.9998ZM19.848 5.59425C19.8476 5.9765 19.6955 6.34296 19.425 6.61311C19.1546 6.88326 18.788 7.035 18.4058 7.035C18.2167 7.035 18.0296 6.99777 17.855 6.92544C17.6804 6.85311 17.5217 6.7471 17.3881 6.61345C17.2544 6.47981 17.1484 6.32115 17.0761 6.14653C17.0037 5.97191 16.9665 5.78475 16.9665 5.59575C16.9665 5.40674 17.0037 5.21959 17.0761 5.04497C17.1484 4.87036 17.2544 4.71169 17.3881 4.57805C17.5217 4.4444 17.6804 4.33839 17.855 4.26606C18.0296 4.19373 18.2167 4.1565 18.4058 4.1565C19.1985 4.1565 19.848 4.8015 19.848 5.59425V5.59425Z" fill="url(#paint0_linear_235_2)"/>
<defs>
<linearGradient id="paint0_linear_235_2" x1="12" y1="0" x2="12" y2="23.997" gradientUnits="userSpaceOnUse">
<stop stop-color="#FA44C7"/>
<stop offset="0.0001" stop-color="#F04AB4" stop-opacity="0.913542"/>
<stop offset="1" stop-color="#FAC744" stop-opacity="0.54"/>
</linearGradient>
</defs>
</svg>
