<svg width="201" height="175" viewBox="0 0 201 175" fill="none" xmlns="http://www.w3.org/2000/svg">
<path d="M176 31.25H201V56.25H176V31.25Z" fill="#1D9BF5"/>
<path d="M176 68.75H201V93.75H176V68.75Z" fill="#1D9BF5"/>
<path d="M138.5 31.25H163.5V56.25H138.5V31.25Z" fill="#1D9BF5"/>
<path d="M138.5 68.75H163.5V93.75H138.5V68.75Z" fill="#1D9BF5"/>
<path d="M122.875 150C128.053 150 132.25 145.803 132.25 140.625C132.25 135.447 128.053 131.25 122.875 131.25C117.697 131.25 113.5 135.447 113.5 140.625C113.5 145.803 117.697 150 122.875 150Z" fill="#1D9BF5"/>
<path d="M163.5 175H82.25C78.9358 174.997 75.7583 173.679 73.4148 171.335C71.0713 168.992 69.7533 165.814 69.75 162.5V12.5C69.7533 9.18581 71.0713 6.00831 73.4148 3.66482C75.7583 1.32133 78.9358 0.00330923 82.25 0H163.5V12.5H82.25V162.5H163.5V112.5H176V162.5C175.997 165.814 174.679 168.992 172.335 171.335C169.992 173.679 166.814 174.997 163.5 175Z" fill="#1D9BF5"/>
<path d="M101.397 68.75L44.0747 124.545L25.4836 106.449L7.25 124.197L25.8411 142.293L44.1938 160.156L62.4275 142.408L119.75 86.6138L101.397 68.75Z" fill="#1D9BF5"/>
<path d="M46.1389 25L63.5 42.3611L46.1389 59.7222" stroke="#1D9BF5" stroke-width="2" stroke-linecap="round" stroke-linejoin="round"/>
<path d="M63.5 42.3607H35.7222C16.5451 42.3607 1 57.9059 1 77.0829V80.5552" stroke="#1D9BF5" stroke-width="2" stroke-linecap="round" stroke-linejoin="round"/>
</svg>
