<svg width="900" height="900" viewBox="0 0 900 900" fill="none" xmlns="http://www.w3.org/2000/svg">
<path d="M562.5 764.438L489.656 691.594L450 731.25L562.5 843.75L787.5 618.75L747.844 579.094L562.5 764.438Z" fill="#1D9BF5"/>
<path d="M281.25 787.5V281.25H618.75V534.375H675V168.75C674.985 153.836 669.054 139.537 658.508 128.992C647.963 118.446 633.664 112.515 618.75 112.5H281.25C266.336 112.515 252.037 118.446 241.492 128.992C230.946 139.537 225.015 153.836 225 168.75V787.5C225.015 802.414 230.946 816.713 241.492 827.258C252.037 837.804 266.336 843.735 281.25 843.75H393.75V787.5H281.25ZM281.25 168.75H618.75V225H281.25V168.75Z" fill="#1D9BF5"/>
</svg>
