<svg width="900" height="720" viewBox="0 0 900 720" fill="none" xmlns="http://www.w3.org/2000/svg">
<path d="M450 202.5C375.441 202.5 315 273.009 315 360C315 446.977 375.441 517.5 450 517.5C524.531 517.5 585 447.005 585 360C585 273.009 524.559 202.5 450 202.5ZM506.25 438.75C506.25 444.966 501.216 450 495 450H405C398.784 450 393.75 444.966 393.75 438.75V416.25C393.75 410.034 398.784 405 405 405H427.5V327.037L426.839 327.473C425.61 328.293 424.232 328.863 422.783 329.15C421.334 329.437 419.843 329.435 418.394 329.145C416.946 328.856 415.569 328.283 414.342 327.46C413.115 326.638 412.062 325.581 411.244 324.352L398.756 305.634C397.936 304.406 397.366 303.027 397.08 301.578C396.793 300.129 396.794 298.638 397.084 297.19C397.374 295.741 397.947 294.364 398.769 293.137C399.592 291.91 400.648 290.857 401.878 290.039L423.436 275.667C428.979 271.972 435.491 270 442.153 270H461.25C467.466 270 472.5 275.034 472.5 281.25V405H495C501.216 405 506.25 410.034 506.25 416.25V438.75ZM855 90H45C20.1516 90 0 110.152 0 135V585C0 609.848 20.1516 630 45 630H855C879.848 630 900 609.848 900 585V135C900 110.152 879.848 90 855 90ZM832.5 472.5C782.789 472.5 742.5 512.789 742.5 562.5H157.5C157.5 512.789 117.211 472.5 67.5 472.5V247.5C117.211 247.5 157.5 207.211 157.5 157.5H742.5C742.5 207.211 782.789 247.5 832.5 247.5V472.5Z" fill="#1D9BF5"/>
</svg>
