<svg width="24" height="24" viewBox="0 0 24 24" fill="none" xmlns="http://www.w3.org/2000/svg">
<path d="M12 2C6.486 2 2 5.589 2 10C2 12.908 3.898 15.515 7 16.934V22L12.34 17.995C17.697 17.852 22 14.32 22 10C22 5.589 17.514 2 12 2Z" fill="#E4F422"/>
<path d="M7.75 5.75V11.75C7.75 11.9489 7.82902 12.1397 7.96967 12.2803C8.11032 12.421 8.30109 12.5 8.5 12.5H16C16.1989 12.5 16.3897 12.421 16.5303 12.2803C16.671 12.1397 16.75 11.9489 16.75 11.75V5.75H7.75ZM7.75 5H16.75C16.9489 5 17.1397 5.07902 17.2803 5.21967C17.421 5.36032 17.5 5.55109 17.5 5.75V11.75C17.5 12.1478 17.342 12.5294 17.0607 12.8107C16.7794 13.092 16.3978 13.25 16 13.25H8.5C8.10218 13.25 7.72064 13.092 7.43934 12.8107C7.15804 12.5294 7 12.1478 7 11.75V5.75C7 5.55109 7.07902 5.36032 7.21967 5.21967C7.36032 5.07902 7.55109 5 7.75 5V5Z" fill="#1D9BF5"/>
<path d="M16.8438 5.75L13.9435 9.065C13.7323 9.30642 13.472 9.4999 13.1799 9.63246C12.8878 9.76502 12.5708 9.8336 12.25 9.8336C11.9292 9.8336 11.6122 9.76502 11.3201 9.63246C11.028 9.4999 10.7677 9.30642 10.5565 9.065L7.65625 5.75H16.8438ZM8.653 5.75L11.1205 8.57075C11.2613 8.73174 11.4349 8.86076 11.6296 8.94916C11.8244 9.03756 12.0358 9.08329 12.2496 9.08329C12.4635 9.08329 12.6749 9.03756 12.8696 8.94916C13.0644 8.86076 13.238 8.73174 13.3788 8.57075L15.847 5.75H8.653V5.75Z" fill="#1D9BF5"/>
</svg>
