<svg width="900" height="900" viewBox="0 0 900 900" fill="none" xmlns="http://www.w3.org/2000/svg">
<path d="M403.125 300C387.75 300 375 312.75 375 328.125V504C375 517.125 381.75 529.125 392.625 535.875L529.125 619.875C535.192 623.555 542.472 624.674 549.364 622.986C556.256 621.298 562.195 616.942 565.875 610.875C569.555 604.808 570.674 597.528 568.986 590.636C567.298 583.744 562.942 577.805 556.875 574.125L431.25 498.75V328.125C431.25 312.75 418.5 300 403.125 300Z" fill="#1D9BF5"/>
<path d="M672 450C677.653 487.273 675.16 525.328 664.694 561.545C654.228 597.762 636.037 631.28 611.374 659.793C586.711 688.305 556.162 711.133 521.83 726.706C487.498 742.279 450.198 750.226 412.5 750C266.25 750 150 633.75 150 487.5C150 341.25 266.25 225 412.5 225C438.75 225 463.875 228.75 487.5 235.875V158.625C463.5 153 438.375 150 412.5 150C225 150 75 300 75 487.5C75 675 225 825 412.5 825C460.038 825.197 507.077 815.308 550.512 795.986C593.946 776.663 632.788 748.347 664.472 712.906C696.156 677.465 719.961 635.707 734.317 590.387C748.672 545.068 753.251 497.219 747.75 450H672V450Z" fill="#1D9BF5"/>
<path d="M825 187.5H750V112.5C750 91.875 733.125 75 712.5 75C691.875 75 675 91.875 675 112.5V187.5H600C579.375 187.5 562.5 204.375 562.5 225C562.5 245.625 579.375 262.5 600 262.5H675V337.5C675 358.125 691.875 375 712.5 375C733.125 375 750 358.125 750 337.5V262.5H825C845.625 262.5 862.5 245.625 862.5 225C862.5 204.375 845.625 187.5 825 187.5Z" fill="#1D9BF5"/>
</svg>
